<?xml version="1.0" encoding="UTF-8" standalone="no"?>
<!DOCTYPE svg PUBLIC "-//W3C//DTD SVG 1.1//EN" "http://www.w3.org/Graphics/SVG/1.1/DTD/svg11.dtd">
<svg width="100%" height="100%" viewBox="0 0 4000 1024" version="1.1" xmlns="http://www.w3.org/2000/svg" xmlns:xlink="http://www.w3.org/1999/xlink" xml:space="preserve" xmlns:serif="http://www.serif.com/" style="fill-rule:evenodd;clip-rule:evenodd;stroke-linejoin:round;stroke-miterlimit:2;">
    <g id="Layer1" transform="matrix(2.7438,0,0,2.7438,-1098.61,-654.115)">
        <g transform="matrix(1,0,0,1,0.39746,-5.68434e-14)">
            <path d="M500,400L586.603,450L586.603,550L500,600L413.397,550L413.397,450L500,400Z" style="fill:rgb(48,105,212);"/>
        </g>
        <g transform="matrix(1,0,0,1,173.603,-5.68434e-14)">
            <path d="M500,400L586.603,450L586.603,550L500,600L413.397,550L413.397,450L500,400Z" style="fill:rgb(39,143,255);"/>
        </g>
        <g transform="matrix(1,0,0,1,87,-150)">
            <path d="M500,400L586.603,450L586.603,550L500,600L413.397,550L413.397,450L500,400Z" style="fill:rgb(77,185,251);"/>
        </g>
        <path d="M673.603,400L760.205,450L673.603,500L587,450L673.603,400Z" style="fill:rgb(97,173,255);"/>
        <g transform="matrix(1,0,0,1,-173.205,0)">
            <path d="M673.603,400L760.205,450L673.603,500L587,450L673.603,400Z" style="fill:rgb(69,133,250);"/>
        </g>
        <g transform="matrix(1,0,0,1,-86.6025,-150)">
            <path d="M673.603,400L760.205,450L673.603,500L587,450L673.603,400Z" style="fill:rgb(125,218,255);"/>
        </g>
        <g transform="matrix(0.249634,0,0,0.249634,522.966,344.222)">
            <g transform="matrix(912.863,0,0,912.863,1100,653.892)">
                <path d="M0.403,0.018C0.59,0.018 0.733,-0.107 0.759,-0.291L0.562,-0.291C0.543,-0.214 0.481,-0.163 0.404,-0.163C0.305,-0.163 0.232,-0.241 0.232,-0.349C0.232,-0.458 0.305,-0.538 0.404,-0.538C0.477,-0.538 0.538,-0.491 0.562,-0.419L0.757,-0.419C0.729,-0.597 0.587,-0.718 0.403,-0.718C0.19,-0.718 0.031,-0.56 0.031,-0.349C0.031,-0.14 0.19,0.018 0.403,0.018L0.403,0.018Z" style="fill:white;fill-rule:nonzero;"/>
            </g>
            <g transform="matrix(912.863,0,0,912.863,1815.68,653.892)">
                <path d="M0.366,0.018C0.544,0.018 0.671,-0.098 0.671,-0.271L0.671,-0.7L0.474,-0.7L0.474,-0.274C0.474,-0.206 0.43,-0.161 0.366,-0.161C0.301,-0.161 0.257,-0.206 0.257,-0.274L0.257,-0.7L0.06,-0.7L0.06,-0.271C0.06,-0.098 0.187,0.018 0.366,0.018Z" style="fill:white;fill-rule:nonzero;"/>
            </g>
            <g transform="matrix(912.863,0,0,912.863,2483.9,653.892)">
                <path d="M0.51,-0.37C0.564,-0.402 0.599,-0.458 0.599,-0.521C0.599,-0.624 0.508,-0.7 0.384,-0.7L0.068,-0.7L0.068,0L0.39,0C0.52,0 0.617,-0.086 0.617,-0.199C0.617,-0.276 0.576,-0.338 0.51,-0.37L0.51,-0.37ZM0.416,-0.489C0.416,-0.453 0.391,-0.428 0.35,-0.428L0.253,-0.428L0.253,-0.55L0.35,-0.55C0.391,-0.55 0.416,-0.525 0.416,-0.489ZM0.358,-0.158L0.253,-0.158L0.253,-0.286L0.358,-0.286C0.399,-0.286 0.427,-0.259 0.427,-0.222C0.427,-0.185 0.399,-0.158 0.358,-0.158Z" style="fill:white;fill-rule:nonzero;"/>
            </g>
            <g transform="matrix(912.863,0,0,912.863,3078.17,653.892)">
                <path d="M0.26,-0.167L0.26,-0.272L0.49,-0.272L0.49,-0.43L0.26,-0.43L0.26,-0.533L0.516,-0.533L0.516,-0.7L0.068,-0.7L0.068,0L0.524,0L0.524,-0.167L0.26,-0.167Z" style="fill:white;fill-rule:nonzero;"/>
            </g>
            <g transform="matrix(912.863,0,0,912.863,3595.77,653.892)">
                <path d="M0.69,-0L0.445,-0.361L0.669,-0.7L0.446,-0.7L0.261,-0.405L0.261,-0.7L0.068,-0.7L0.068,-0L0.261,-0L0.261,-0.309L0.461,-0L0.69,-0Z" style="fill:white;fill-rule:nonzero;"/>
            </g>
            <g transform="matrix(912.863,0,0,912.863,4213.78,653.892)">
                <rect x="0.068" y="-0.7" width="0.195" height="0.7" style="fill:white;fill-rule:nonzero;"/>
            </g>
            <g transform="matrix(912.863,0,0,912.863,4515.93,653.892)">
                <path d="M0.593,-0.7L0.019,-0.7L0.019,-0.526L0.209,-0.526L0.209,-0L0.402,-0L0.402,-0.526L0.593,-0.526L0.593,-0.7Z" style="fill:white;fill-rule:nonzero;"/>
            </g>
        </g>
    </g>
</svg>
