<?xml version="1.0" encoding="UTF-8" standalone="no"?>
<!DOCTYPE svg PUBLIC "-//W3C//DTD SVG 1.1//EN" "http://www.w3.org/Graphics/SVG/1.1/DTD/svg11.dtd">
<svg width="100%" height="100%" viewBox="0 0 1024 1024" version="1.1" xmlns="http://www.w3.org/2000/svg" xmlns:xlink="http://www.w3.org/1999/xlink" xml:space="preserve" xmlns:serif="http://www.serif.com/" style="fill-rule:evenodd;clip-rule:evenodd;stroke-linejoin:round;stroke-miterlimit:2;">
    <g id="Layer1" transform="matrix(2.7438,0,0,2.7438,-1098.61,-654.115)">
        <g transform="matrix(1,0,0,1,0.39746,-5.68434e-14)">
            <path d="M500,400L586.603,450L586.603,550L500,600L413.397,550L413.397,450L500,400Z" style="fill:rgb(48,105,212);"/>
        </g>
        <g transform="matrix(1,0,0,1,173.603,-5.68434e-14)">
            <path d="M500,400L586.603,450L586.603,550L500,600L413.397,550L413.397,450L500,400Z" style="fill:rgb(39,143,255);"/>
        </g>
        <g transform="matrix(1,0,0,1,87,-150)">
            <path d="M500,400L586.603,450L586.603,550L500,600L413.397,550L413.397,450L500,400Z" style="fill:rgb(77,185,251);"/>
        </g>
        <path d="M673.603,400L760.205,450L673.603,500L587,450L673.603,400Z" style="fill:rgb(97,173,255);"/>
        <g transform="matrix(1,0,0,1,-173.205,0)">
            <path d="M673.603,400L760.205,450L673.603,500L587,450L673.603,400Z" style="fill:rgb(69,133,250);"/>
        </g>
        <g transform="matrix(1,0,0,1,-86.6025,-150)">
            <path d="M673.603,400L760.205,450L673.603,500L587,450L673.603,400Z" style="fill:rgb(125,218,255);"/>
        </g>
    </g>
</svg>
